<?xml version="1.0" encoding="UTF-8"?>
<svg width="64px" height="64px" viewBox="0 0 64 64" version="1.1" xmlns="http://www.w3.org/2000/svg" xmlns:xlink="http://www.w3.org/1999/xlink" preserveAspectRatio="xMidYMid">
    <g>
        <rect fill="#092E20" x="0" y="0" width="64" height="64" rx="7"></rect>
        <path d="M46.594253,23.549409 L46.594253,40.10612 C46.594253,45.8108215 46.1768798,48.5469368 44.9247593,50.9123516 C43.7650895,53.1853165 42.2344211,54.6226371 39.0809328,56.1996807 L32.4487341,53.0458926 C35.6025218,51.5618981 37.132891,50.2637027 38.1067623,48.2686872 C39.1273077,46.228195 39.4522306,43.8627799 39.4522306,37.6482537 L39.4522306,23.549409 L46.594253,23.549409 Z M35.2321216,12.5196802 L35.2321216,45.5792465 C31.5682109,46.274869 28.878172,46.5531179 25.9565577,46.5531179 C17.2371929,46.5531179 12.6921608,42.6112578 12.6921608,35.0512635 C12.6921608,27.7698172 17.5157411,23.0395851 24.9823873,23.0395851 C26.1417579,23.0395851 27.0228798,23.1320356 28.0897996,23.4102845 L28.0897996,12.5196802 L35.2321216,12.5196802 Z M25.678309,28.7900635 C22.0607733,28.7900635 19.9736069,31.0163546 19.9736069,34.9118398 C19.9736069,38.7151741 21.9680236,40.802041 25.631934,40.802041 C26.420007,40.802041 27.0695537,40.7556663 28.0897996,40.616841 L28.0897996,29.1607631 C27.2550529,28.8828132 26.5594305,28.7900635 25.678309,28.7900635 Z M46.594253,12.5576776 L46.594253,19.8854985 L39.4522306,19.8854985 L39.4522306,12.5576776 L46.594253,12.5576776 Z" fill="#FFFFFD"></path>
    </g>
</svg>
